<svg height="512" viewBox="0 0 46 60" width="512" xmlns="http://www.w3.org/2000/svg"><g id="Page-1" fill="none" fill-rule="evenodd"><g id="021---HDD" fill="rgb(0,0,0)" fill-rule="nonzero"><path id="Shape" d="m45 31c-.5522847 0-1-.4477153-1-1v-20.5859l-7.4141-7.4141h-27.1718l-7.4141 7.4141v20.5859c0 .5522847-.44771525 1-1 1s-1-.4477153-1-1v-20.5859c-.00144561-.53070851.20953767-1.03992757.5859-1.4141l7.4141-7.4141c.37417243-.37636233.88339149-.58734561 1.4141-.5859h27.1718c.5307085-.00144561 1.0399276.20953767 1.4141.5859l7.4141 7.4141c.3763623.37417243.5873456.88339149.5859 1.4141v20.5859c0 .5522847-.4477153 1-1 1z"/><path id="Shape" d="m36.5859 60h-27.1718c-.53070851.0014456-1.03992757-.2095377-1.4141-.5859l-7.4141-7.4141c-.37636233-.3741724-.58734561-.8833915-.5859-1.4141v-20.5859c0-.5522847.44771525-1 1-1s1 .4477153 1 1v20.5859l7.4141 7.4141h27.1718l7.4141-7.4141v-20.5859c0-.5522847.4477153-1 1-1s1 .4477153 1 1v20.5859c.0014456.5307085-.2095377 1.0399276-.5859 1.4141l-7.4141 7.4141c-.3741724.3763623-.8833915.5873456-1.4141.5859z"/><path id="Shape" d="m23 31c-4.418278 0-8-3.581722-8-8s3.581722-8 8-8 8 3.581722 8 8c-.0050699 4.4161763-3.5838237 7.9949301-8 8zm0-14c-3.3137085 0-6 2.6862915-6 6s2.6862915 6 6 6 6-2.6862915 6-6c-.0036374-3.3122007-2.6877993-5.9963626-6-6z"/><path id="Shape" d="m23 26c-1.6568542 0-3-1.3431458-3-3s1.3431458-3 3-3 3 1.3431458 3 3c-.0018187 1.6561003-1.3438997 2.9981813-3 3zm0-4c-.5522847 0-1 .4477153-1 1s.4477153 1 1 1 1-.4477153 1-1c-.0007162-.5519878-.4480122-.9992838-1-1z"/><path id="Shape" d="m21.439 51.44c-.3633826-.0002898-.6980091-.1976803-.8740387-.5155806-.1760295-.3179004-.1657543-.7062718.0268387-1.0144194l10.9341-17.5-18.9959 11.8683c-.4684203.2927109-1.0854391.1502703-1.37815-.31815s-.1502703-1.0854391.31815-1.37815l20.6-12.87c.617873-.3896442 1.4232924-.298965 1.9390587.2183114.5157662.5172763.6040902 1.3229574.2126413 1.9396886l-11.9336 19.1c-.1828644.2927997-.5038888.4704954-.8491.47zm11.0927-20.64-.0039.0063z"/><path id="Shape" d="m22.5859 55h-12.1718c-.53070851.0014456-1.03992757-.2095377-1.4141-.5859l-3.4141-3.4141c-.37636233-.3741724-.58734561-.8833915-.5859-1.4141v-12.1718c.00009185-.8088539.48737511-1.5380221 1.23466385-1.8475447s1.60744413-.1384555 2.17943615.4334447l4 4c.3763623.3741724.5873456.8833915.5859 1.4141v5.1718l.4141.4141h5.1718c.5307085-.0014456 1.0399276.2095377 1.4141.5859l4 4c.5719002.571992.7429673 1.4321474.4334447 2.1794361-.3095226.7472888-1.0386908 1.2345721-1.8475447 1.2346639zm-15.5859-17.5859v12.1718l3.4141 3.4141h12.1718l-4-4h-5.1718c-.5307085.0014456-1.0399276-.2095377-1.4141-.5859l-.4141-.4141c-.3763623-.3741724-.5873456-.8833915-.5859-1.4141v-5.1718z"/><circle id="Oval" cx="25" cy="39" r="1"/><circle id="Oval" cx="8" cy="8" r="1"/><circle id="Oval" cx="21" cy="10" r="1"/><circle id="Oval" cx="38" cy="8" r="1"/><circle id="Oval" cx="38" cy="38" r="1"/><circle id="Oval" cx="19" cy="45" r="1"/><path id="Shape" d="m2 9c-.55228475 0-1-.44771525-1-1v-5c.00110246-1.10411252.89588748-1.99889754 2-2h5c.55228475 0 1 .44771525 1 1s-.44771525 1-1 1h-5v5c0 .55228475-.44771525 1-1 1z"/><path id="Shape" d="m43 59h-5c-.5522847 0-1-.4477153-1-1s.4477153-1 1-1h5v-5c0-.5522847.4477153-1 1-1s1 .4477153 1 1v5c-.0011025 1.1041125-.8958875 1.9988975-2 2z"/><path id="Shape" d="m8 59h-5c-1.10411252-.0011025-1.99889754-.8958875-2-2v-5c0-.5522847.44771525-1 1-1s1 .4477153 1 1v5h5c.55228475 0 1 .4477153 1 1s-.44771525 1-1 1z"/><path id="Shape" d="m44 9c-.5522847 0-1-.44771525-1-1v-5h-5c-.5522847 0-1-.44771525-1-1s.4477153-1 1-1h5c1.1041125.00110246 1.9988975.89588748 2 2v5c0 .55228475-.4477153 1-1 1z"/><path id="Shape" d="m18.4707 40.3906c-.0899163-.0000645-.1794165-.0122064-.2661-.0361-8.57433962-2.3734128-14.12727252-10.656466-13.06582194-19.4896824 1.06145057-8.8332163 8.41864314-15.56491386 17.31117044-15.8394065s16.6509027 5.9906208 18.255137 14.7415533c1.6042343 8.7509326-3.4272545 17.3607035-11.8388855 20.2584356-.3383551.1189553-.7145036.0475999-.9857883-.1870042-.2712848-.2346042-.3961557-.5965248-.3272544-.9485009.0689013-.351976.3210217-.6400986.6607427-.7550949 7.4831037-2.5751128 11.9609361-10.232421 10.5358703-18.0168435-1.4250657-7.7844226-8.3251766-13.35881231-16.2352377-13.1159548-7.9100612.24285751-14.45520434 6.2300482-15.40003591 14.0872322-.94483158 7.857184 3.99431881 15.2253686 11.62130331 17.3365661.4837671.1318605.7950895.6016022.7280436 1.0985153-.0670458.4969132-.4917289.8673495-.9931436.8662847z"/><path id="Shape" d="m30 53h-7c-.5522847 0-1-.4477153-1-1s.4477153-1 1-1h7c1.6568542 0 3-1.3431458 3-3s-1.3431458-3-3-3h-4.54c-.5522847 0-1-.4477153-1-1s.4477153-1 1-1h4.54c2.7614237 0 5 2.2385763 5 5s-2.2385763 5-5 5z"/><path id="Shape" d="m11 23c-.5522847 0-1-.4477153-1-1 .0409997-4.5527748 2.5501467-8.7244754 6.5527-10.8945.4937702-.2474236 1.0946264-.0477202 1.34205.44605.2474235.4937702.0477202 1.0946264-.44605 1.34205-3.3278644 1.8283541-5.4107901 5.309543-5.4487 9.1064 0 .5522847-.4477153 1-1 1z"/></g></g></svg>